<?xml version="1.0" standalone="no"?>
<!DOCTYPE svg PUBLIC "-//W3C//DTD SVG 20010904//EN"
 "http://www.w3.org/TR/2001/REC-SVG-20010904/DTD/svg10.dtd">
<svg version="1.0" xmlns="http://www.w3.org/2000/svg"
 width="512.000000pt" height="512.000000pt" viewBox="0 0 512.000000 512.000000"
 preserveAspectRatio="xMidYMid meet">
    <g transform="translate(0.000000,512.000000) scale(0.100000,-0.100000)"
    fill="#000000" stroke="none">
        <path d="M2455 4667 c-87 -22 -148 -58 -214 -126 -59 -60 -157 -224 -1039
        -1731 -536 -916 -988 -1694 -1005 -1730 -40 -84 -49 -207 -22 -306 44 -162
        186 -292 354 -324 74 -14 3988 -14 4062 0 169 32 310 161 354 324 22 80 17
        220 -10 284 -33 81 -1993 3417 -2035 3465 -85 96 -190 146 -320 153 -42 2 -97
        -2 -125 -9z m246 -1054 c61 -34 120 -105 139 -166 18 -57 16 -103 -30 -879
        -22 -373 -40 -682 -40 -688 0 -6 -77 -10 -210 -10 -193 0 -210 1 -210 18 0 9
        -20 348 -44 752 -49 815 -49 794 15 886 58 85 146 126 255 121 57 -3 83 -10
        125 -34z m-13 -2083 c68 -29 144 -112 167 -181 38 -114 2 -254 -85 -333 -65
        -58 -122 -80 -210 -80 -127 0 -227 64 -282 179 -53 113 -34 243 49 335 95 106
        230 136 361 80z"/>
    </g>
</svg>
